<?xml version="1.0" encoding="UTF-8"?>
<svg id="Layer_1" data-name="Layer 1" xmlns="http://www.w3.org/2000/svg" viewBox="0 0 595.28 841.89">
  <defs>
    <style>
      .cls-1 {
        letter-spacing: -.03em;
      }

      .cls-2 {
        letter-spacing: -.03em;
      }

      .cls-3 {
        font-family: KGHolocene-Regular, 'KG Holocene';
        font-size: 53.62px;
      }

      .cls-3, .cls-4 {
        fill: #231f20;
      }

      .cls-5 {
        letter-spacing: -.04em;
      }

      .cls-6 {
        fill: #fcb514;
      }

      .cls-6, .cls-7, .cls-8, .cls-4 {
        stroke: #231f20;
        stroke-miterlimit: 10;
      }

      .cls-7 {
        fill: #fcb600;
      }

      .cls-8 {
        fill: #fff;
      }
    </style>
  </defs>
  <circle class="cls-6" cx="284.33" cy="392" r="275"/>
  <circle class="cls-8" cx="284.33" cy="392" r="264.69"/>
  <circle class="cls-4" cx="284.33" cy="392" r="254.38"/>
  <circle class="cls-7" cx="284.33" cy="392" r="244.06"/>
  <path d="M507.75,373.95h-150.89c-10.68,0-13.49-4.46-18.16-11.86l-.45-.72c-2.02-3.19-4.52-4.77-7.25-4.53-4.63,.3-6.79,4.93-8.87,9.41-.75,1.61-1.65,3.52-2.47,4.8-.39-.41-.8-.98-1.21-1.68,2.88-7.25,6.43-18.66,2.64-23.65-1.31-1.73-3.33-2.58-5.44-2.26-3.16,.46-5.58,3.22-7.61,8.66-.6,1.59-1,3.23-1.23,4.88-.82-3.52-2.08-5.87-4.44-7.07-2.2-1.12-4.26-.63-5.69-.01-.68-2.06-1.7-6.45-2.7-15.67-.78-7.22-2.01-14.32-7.55-14.99-5.39-.64-7.75,5.78-8.63,8.2-1.16,3.18-2.61,9.01-3.85,16-3.74-1.2-7.7-.39-11.32,2.5-2,1.6-3.71,3.47-5.18,5.52,.63-14.24-.46-18.35-4.8-19.45-.13-.03-.28-.06-.44-.09l.76-11.34c.11-1.57,.2-2.96,.2-4.18h0c-.01-3.37-.79-5.38-4.21-5.72-4.66-.45-5.23,4.01-5.54,6.41-4.34,33.51-9.08,43.71-11.45,46.8-.45-2.39-.8-6-1.07-8.88,0-.05-.01-.11-.02-.17,8.91-24.28,14.85-52.14,9.19-58.79-1.97-2.32-5.71-3.74-10.26-.76-6.97,4.57-9.98,12.31-11.06,21.5-1.46-1.61-3.1-3.08-4.96-4.37-4.47-3.11-7.84-2.75-9.98-1.79-.78-8.76-1.72-8.76-5.24-8.64-4.72,.11-4.76,3.17-4.86,11.34-.05,3.96-.12,7.72-.22,11.26-1-1.76-2.13-3.1-3.38-3.92-2.15-1.39-4.66-1.52-6.86-.33-.65,.34-1.51,.81-2.45,1.94-5.7-18.7-8.22-22.62-13.39-21.94-5.42,.75-6.36,6.92-6.43,20.48-.02,4.25-.17,8.65-.41,13.15-.32-.96-.67-1.9-1.03-2.84,3.03-79.36-3.46-82.72-6.26-84.16-2.26-1.17-5.85-1.05-8.48,3.12-.22,.35-5.12,9.08-12.28,22.52-1.65-1.76-3.52-2.86-5.36-3.51-9.98-3.59-22.13,4.94-28.08,15.26-.33,.58-.63,1.19-.9,1.84-3.42,.62-6.59,1.84-9.44,3.67-8.16,5.22-17.42,17.86-15.17,48.37,1.26,17.07,4.61,29.51,10.03,37.25-9.43,24.45-14.38,44.43-8.63,50.5,2.3,2.42,6.7,4.39,14.62,0,3.33-1.85,6.28-4.36,8.86-7.44,.02,.25,.06,.51,.12,.76,.33,1.41,8.13,33.73,19.73,33.73,.32,0,.65-.03,.97-.08,6.49-1.01,8.42-9.09,6.91-28.83-.13-1.75-.3-3.56-.48-5.42,1.75-.82,3.66-2.14,5.35-4.26,1.96,17.5,4.03,22.21,8.97,22.99,2.57,.38,4.49-.8,5.89-2.41-.4,4.11,.51,5.2,3.5,5.92q4.73,1.16,11.06-20.49c.8-2.73,1.66-5.67,2.53-8.63,2.09,3.88,4.65,6.27,7.77,6.31,3.8-.12,8.05-1.73,10.39-18.23,1.57,.98,3.54,1.08,5.36,.23,2.28-1.07,4.96-4.51,7.58-9.86,.87,1.4,1.98,2.61,3.37,3.59,2.17,1.53,8.04,4.24,15.38-3.81,1.14-1.25,2.32-2.79,3.51-4.57,1.61,1.21,3.11,1.48,4.49,1.43,2.32-.09,5.41-1.36,6.95-6.9,.47-1.7,.83-3.49,1.11-5.37,1.83,.51,4.43,.39,7.61-1.9,.39-.29,.8-.61,1.23-1.01-1.34,12.79-.86,24.96,4.28,28.8,3.4,2.53,6.2,2.19,7.94,1.47,4.91-2.03,5.82-8.29,7.21-17.78,1.51-10.34,3.58-24.52,11.43-30.8,1.69-1.36,2.46-1.16,3.81,.02l.02,.02c-2.17,17.51-2.13,37.52,5.88,42.74,4.52,2.95,8.4,1.21,10.34-1.17,5.84-7.16,1.84-32.19-6.21-44.38,.66-4.71,1.47-9.11,2.31-12.8,1.9,15.9,4.19,20,7.66,21.78,1.95,1.01,3.8,.84,5.23,.38,.17,.87,.35,2.03,.54,3.57,.64,5.41,.99,9.86,1.26,13.27,.63,8.03,.92,11.7,5.33,12.45,4.02,.69,5.48-1.47,9.46-10.32,.28,.22,.56,.43,.84,.62,3.5,2.33,7.43,2.13,10.27-.53,2.37-2.23,3.93-5.57,5.44-8.8,.23-.48,.49-1.04,.76-1.61,4.8,7.53,10.34,14.84,25.31,14.84h150.9c2.64,0,4.79-2.14,4.79-4.79s-2.14-4.78-4.79-4.78Zm-424.89-41.6c-.5-17.37,3.36-29.5,11.05-34.44,.74-.47,1.52-.89,2.35-1.23-.15,3.92,.09,8.46,.66,13.63-5.1,2.67-10.9,8.7-14.05,22.04Zm2.11,85.29c-1.64,.91-2.65,1.23-3.2,1.35-1.61-4.35,1.97-17.1,8.35-33.8,0,2.71,.38,5.48,1.18,8.32,1.12,3.97,2.78,7.69,4.82,11-2.89,5.99-6.55,10.58-11.15,13.13Zm5.91-59.86c-.67-3.07-.8-7.04-.41-11.86,1.06-13.02,4.25-20.79,7.93-24.76,.7,4.42,1.55,9.17,2.53,14.27-3.5,7.49-6.89,15.01-10.05,22.34Zm9.63,33.13c-.56-2-.81-3.97-.79-5.96,.86,.04,1.72,.03,2.58-.04-.47,2.32-1.01,4.58-1.58,6.75-.07-.25-.15-.5-.22-.75Zm1.63,22.67s-.06,.02-.1,.02c.2-.33,.41-.67,.61-1.01,.32,.3,.63,.59,.95,.87-.48-.01-.97,0-1.46,.12Zm9.33-25.49c.49,2.69,.97,5.37,1.43,8.02,.82,4.79,1.51,9.26,2.09,13.45-2.6-1.15-5.41-3.24-7.94-6.2,1.78-4.64,3.24-9.76,4.43-15.27Zm5.42,52.54c-2.68-4.36-6.46-12.84-8.99-23.5-.05-.2-.11-.4-.18-.59,2.75,1.72,5.63,2.88,8.49,3.37,.17,1.7,.32,3.37,.45,4.98,.62,8.06,.52,12.89,.23,15.74Zm.35-72.87c-.65-3.16-1.3-6.31-1.94-9.44,.15-2.23,.26-4.48,.37-6.76,.66-1,1.32-2.01,1.97-3.03,.31,1.97,.6,3.95,.9,5.92,.58,3.82,1.13,7.42,1.66,10.79-.98,.89-1.97,1.74-2.96,2.53Zm7.08,39.51c-.56-4-1.23-8.25-2-12.76-.87-5.1-1.82-10.25-2.82-15.4,1.33,.71,2.47,1.67,3.43,2.99,1.2,7.07,2.26,12.7,3.28,17.16-.19,3.36-.83,6.08-1.88,8.01Zm-1.26-89.39c-.27-.32-.54-.64-.82-.95-.17-.94-.33-1.88-.5-2.8,1.66-3.39,3.3-6.73,4.93-10.01,.08,.06,.17,.12,.25,.18-.91,4.79-2.24,9.3-3.86,13.58Zm-.04-27.15c-2.33-1.16-4.65-2.11-6.93-2.87-.88-2.87-1.8-4.63-3.31-5.36,4.06-3.63,8.57-5.35,11.17-4.4,1.29,.46,2.51,1.88,3.34,4.44-1.38,2.62-2.8,5.36-4.27,8.19Zm8.13,34.31c-.44,1.7-.8,3.32-1.09,4.87-.26-.66-.54-1.31-.82-1.95,2.36-5.15,4.39-10.64,5.91-16.59,.17,.17,.34,.35,.52,.53-1.51,3.11-3.04,7.35-4.52,13.14Zm7.46,17.86c-.27-4.23,.17-9.11,1.81-15.48,.76-2.95,1.5-5.34,2.19-7.27,1.01,1.4,1.98,2.85,2.89,4.34-.25,1.94-.66,4.07-1.26,6.35-.88,3.33-2.88,7.56-5.63,12.06Zm2.97,78.23c-.37-2.38-.72-5.15-1.05-8.14,2.15-2.54,3.19-7.03,4.1-11.83,.35-1.88,.66-3.68,.91-5.41-1.15,10.55-2.48,19.4-3.96,25.37Zm4.94-35.15c.65-13.38-2.09-21.54-4.58-28.95-.16-.47-.31-.93-.46-1.38,3.11-4.26,5.78-8.51,7.85-12.41-.67,14.88-1.62,29.69-2.81,42.75Zm3.93-81.48c-1.34-1.03-2.89-1.57-4.5-1.57-.66,0-1.32,.09-1.99,.27-.72,.2-1.52,.51-2.37,1.05-1.42-1.4-2.87-2.73-4.34-3.99,.92-7.12,.82-12.68,.06-17.02,4.52-8.64,8.63-16.18,11.96-21.96,1.02,8.78,1.39,24.64,1.17,43.22Zm19.98,100.81c-.83-2.19-1.72-5.23-2.55-9,.91-2.68,1.76-4.93,2.45-6.43,.62,.5,1.33,1.06,2.15,1.64-.6,6.88-1.38,11.16-2.04,13.79Zm3.01-34.29c-.05,3.32-.15,6.37-.26,9.15-1.58-.87-3.43-1.39-5.59-.72-.83,.26-1.59,.63-2.3,1.19-.02-.18-.04-.37-.06-.55,2.82-19.02,5.18-40.1,5.33-58.57,1.72,5.44,3.54,11.71,5.06,16.99-1.1,7.32-1.93,17.7-2.18,32.51Zm9.4,7.09c.08-2.19,.13-4.5,.17-6.94,.04-2.73,.11-5.29,.19-7.7,1.19,3.39,2.24,5.88,3.25,7.68-1.27,1.95-2.48,4.25-3.61,6.95Zm2.57-40.2c.41-2.38,.82-4.18,1.2-5.53,1.34,4.11,2.65,11.09,2.97,19.73-1.42-4.64-2.88-9.71-4.17-14.19Zm22.44-17.97c.15,.09,.32,.2,.51,.33,1.79,1.24,3.32,2.76,4.62,4.49-1.86,1.55-3.63,3.62-5.26,5.94-.52-4.82-.55-8.7,.13-10.76Zm-4.87,66.09c-1.43-1.02-2.67-5.09-1.51-13.25,.12-.82,.25-1.66,.4-2.49,1.74-.52,3.44-.62,5.44-.62,1.1,2.94,2.14,5.38,3.12,7.43-4.8,7.98-7.44,8.84-7.47,8.93Zm14.09-26.9c-.66,.65-1.66,.93-3.05,1.03-1.41-4.62-2.72-9.7-3.79-14.67,2.54-5.23,5.17-9.48,7.27-11.92,.43,1.24,.81,2.52,1.14,3.82,.16,2.7,.35,5.42,.55,8.13,.14,2,.29,4.01,.41,6.01-.61,4.87-1.73,6.82-2.52,7.6Zm11.48-28.39c-.19-.77-.42-1.53-.69-2.27-.13-9.88,.89-18.57,5.27-23.41,.08,5.06-1.64,14.66-4.58,25.68Zm18.18,58.32c-.06-.48-.11-.99-.14-1.53,.12,.06,.25,.11,.38,.15-.08,.47-.16,.94-.24,1.38Zm34.49-9.49c-.19-1.89-.31-3.9-.34-6,.76,4.04,1.15,7.9,1.12,10.83-.29-1.21-.57-2.79-.77-4.82Z"/>
  <text class="cls-3" transform="translate(78.05 510.91)"><tspan x="0" y="0">bet</tspan><tspan class="cls-2" x="98.99" y="0">t</tspan><tspan x="122.53" y="0">er.</tspan><tspan class="cls-1" x="204.9" y="0">d</tspan><tspan x="241.79" y="0">esi</tspan><tspan class="cls-5" x="330.81" y="0">g</tspan><tspan x="365.99" y="0">n</tspan></text>
</svg>